<svg width="85" height="85" viewBox="0 0 85 85" fill="none" xmlns="http://www.w3.org/2000/svg">
<path fill-rule="evenodd" clip-rule="evenodd" d="M20 0C8.95431 0 0 8.9543 0 20V65C0 76.0457 8.9543 85 20 85H65C76.0457 85 85 76.0457 85 65V20C85 8.95431 76.0457 0 65 0H20ZM24 4C12.9543 4 4 12.9543 4 24V61C4 72.0457 12.9543 81 24 81H61C72.0457 81 81 72.0457 81 61V24C81 12.9543 72.0457 4 61 4H24Z" fill="#FFA500"/>
<path d="M26.6338 22.2473C32.0714 22.2473 36.2467 23.762 39.1598 26.7916C42.0728 29.8211 43.5293 34.1712 43.5293 39.8419C43.5293 46.4836 41.898 51.5717 38.6354 55.1061C35.3728 58.6406 30.712 60.4078 24.6529 60.4078C22.8274 60.4078 20.6329 60.369 18.0695 60.2913C15.5449 60.2136 13.3698 60.1165 11.5443 60L11.9521 48.814L11.5443 22.4803L26.6338 22.2473ZM26.0512 54.2905C32.2268 54.2905 35.3146 50.0763 35.3146 41.648C35.3146 37.0648 34.5572 33.744 33.0424 31.6854C31.5665 29.5881 29.2361 28.5394 26.0512 28.5394C23.9926 28.5394 21.7981 28.6365 19.4677 28.8307L19.1182 48.1149L19.2929 53.8827C22.0118 54.1545 24.2645 54.2905 26.0512 54.2905ZM61.7807 22.0142C64.9656 22.0142 68.1311 22.6551 71.2772 23.9368L69.9954 30.7533L68.8302 31.2194C67.5097 30.2872 66.1308 29.5492 64.6937 29.0055C63.2955 28.4617 62.0138 28.1898 60.8486 28.1898C59.2949 28.1898 58.0521 28.6171 57.1199 29.4715C56.1877 30.2872 55.7216 31.2388 55.7216 32.3263C55.7216 33.4527 56.2266 34.4043 57.2364 35.1811C58.2851 35.9579 59.9164 36.8706 62.1303 37.9193C64.2665 38.8903 65.9949 39.8031 67.3155 40.6575C68.6749 41.4732 69.8207 42.5607 70.7528 43.9201C71.7238 45.2795 72.2093 46.9497 72.2093 48.9305C72.2093 51.0667 71.6267 53.0282 70.4615 54.8148C69.2963 56.5626 67.6456 57.9609 65.5094 59.0096C63.3732 60.0194 60.9068 60.5243 58.1103 60.5243C54.4205 60.5243 50.7112 59.7281 46.9826 58.1357L48.0895 50.7949L48.9634 50.3288C50.517 51.6882 52.2066 52.7369 54.0321 53.4748C55.8964 54.174 57.5471 54.5235 58.9842 54.5235C60.6932 54.5235 62.0138 54.1157 62.9459 53.3001C63.9169 52.4456 64.4024 51.4357 64.4024 50.2705C64.4024 49.0276 63.8781 48.0178 62.8294 47.241C61.8196 46.4642 60.1688 45.532 57.8773 44.4445C55.7799 43.5123 54.0709 42.6384 52.7504 41.8228C51.4298 41.0071 50.3034 39.9196 49.3713 38.5602C48.4391 37.2008 47.973 35.55 47.973 33.608C47.973 31.433 48.5556 29.4715 49.7208 27.7237C50.886 25.9371 52.5173 24.5388 54.6147 23.529C56.7121 22.5191 59.1007 22.0142 61.7807 22.0142Z" fill="#FF9C0D"/>
</svg>
