<svg xmlns="http://www.w3.org/2000/svg" viewBox="0 0 32 40" x="0px" y="0px"><path d="M29.707,28.293l-7.406-7.406c1.681-2,2.699-4.576,2.699-7.387,0-6.341-5.159-11.5-11.5-11.5S2,7.159,2,13.5s5.159,11.5,11.5,11.5c2.811,0,5.387-1.017,7.387-2.699l7.406,7.406c.195,.195,.451,.293,.707,.293s.512-.098,.707-.293c.391-.391,.391-1.023,0-1.414ZM4,13.5c0-5.238,4.262-9.5,9.5-9.5s9.5,4.262,9.5,9.5-4.262,9.5-9.5,9.5S4,18.738,4,13.5Z"/><text x="0" y="47" fill="#000000" font-size="5px" font-weight="bold" font-family="'Helvetica Neue', Helvetica, Arial-Unicode, Arial, Sans-serif">Created by Enjang Solehudin</text><text x="0" y="52" fill="#000000" font-size="5px" font-weight="bold" font-family="'Helvetica Neue', Helvetica, Arial-Unicode, Arial, Sans-serif">from the Noun Project</text></svg>