<svg xmlns="http://www.w3.org/2000/svg" viewBox="0 0 128 160" x="0px" y="0px"><g data-name="15 trolley"><path d="M121.018,26.273A8.92,8.92,0,0,0,114,22.89H30.85l-1.981-9.68a7,7,0,0,0-6.836-5.579h-14a3,3,0,0,0,0,6h14a.98.98,0,0,1,.958.781l7.741,37.823.013.065,4.576,22.36a12.972,12.972,0,0,0,1.222,25.822h1.479a12.944,12.944,0,1,0,21.811,0H81.774a12.943,12.943,0,1,0,21.81,0h5.985a3,3,0,0,0,0-6H36.543a6.959,6.959,0,0,1,0-13.886h73.026a3,3,0,0,0,2.923-2.325l6-25.99.005-.021,4.243-18.388A8.921,8.921,0,0,0,121.018,26.273ZM92.679,100.482a6.944,6.944,0,1,1-6.943,6.944A6.952,6.952,0,0,1,92.679,100.482Zm-43.752,0a6.944,6.944,0,1,1-6.943,6.944A6.952,6.952,0,0,1,48.927,100.482Zm-12.8-51.819L32.078,28.89H48.716l.2,1.637c.73,6.018,1.462,12.076,2.183,18.136ZM41.432,74.6,37.353,54.663H51.817c.81,6.687,1.62,13.348,2.429,19.933Zm30.348,0H60.292c-.811-6.584-1.621-13.248-2.431-19.933H71.78Zm0-25.933H57.139c-.747-6.3-1.509-12.6-2.268-18.858l-.111-.915H71.78ZM89.269,74.6H77.78V54.663H91.7C90.89,61.352,90.08,68.014,89.269,74.6Zm5.4-44.609c-.753,6.2-1.508,12.443-2.247,18.676H77.78V28.89H94.8ZM107.182,74.6H95.315c.809-6.582,1.619-13.243,2.429-19.933h14.038Zm9.709-42.074-3.724,16.141h-14.7c.713-6,1.438-11.993,2.161-17.953l.221-1.82H114a2.964,2.964,0,0,1,2.89,3.632Z"/></g><text x="0" y="143" fill="#000000" font-size="5px" font-weight="bold" font-family="'Helvetica Neue', Helvetica, Arial-Unicode, Arial, Sans-serif">Created by Ryan Awan</text><text x="0" y="148" fill="#000000" font-size="5px" font-weight="bold" font-family="'Helvetica Neue', Helvetica, Arial-Unicode, Arial, Sans-serif">from the Noun Project</text></svg>