<svg xmlns="http://www.w3.org/2000/svg" xmlns:xlink="http://www.w3.org/1999/xlink" version="1.1" x="0px" y="0px" viewBox="0 0 100 125" style="enable-background:new 0 0 100 100;" xml:space="preserve"><path d="M90.24,15.63H70.16v-3.27c0-5.85-4.76-10.62-10.62-10.62H40.46c-5.85,0-10.62,4.76-10.62,10.62v3.27H9.76  c-1.49,0-2.68,1.19-2.68,2.68s1.19,2.68,2.68,2.68h4.84v62.94c0,7.9,6.43,14.33,14.33,14.33h42.15c7.9,0,14.33-6.43,14.33-14.33  V20.99h4.84c1.49,0,2.68-1.19,2.68-2.68S91.73,15.63,90.24,15.63z M35.2,12.36c0-2.9,2.36-5.26,5.26-5.26h19.09  c2.9,0,5.26,2.36,5.26,5.26v3.27H35.2V12.36z M80.06,83.93h-0.02c0,4.94-4.03,8.97-8.97,8.97H28.93c-4.94,0-8.97-4.03-8.97-8.97  V20.99h60.11V83.93z M64.8,77.66V36.21c0-1.49,1.19-2.68,2.68-2.68s2.68,1.19,2.68,2.68v41.45c0,1.49-1.19,2.68-2.68,2.68  S64.8,79.15,64.8,77.66z M47.32,80.6V33.27c0-1.49,1.19-2.68,2.68-2.68s2.68,1.19,2.68,2.68v47.35c0,1.49-1.19,2.68-2.68,2.68  S47.32,82.09,47.32,80.6z M29.84,77.66V36.21c0-1.49,1.19-2.68,2.68-2.68s2.68,1.19,2.68,2.68v41.45c0,1.49-1.19,2.68-2.68,2.68  C31.05,80.34,29.84,79.15,29.84,77.66z"/><text x="0" y="115" fill="#000000" font-size="5px" font-weight="bold" font-family="'Helvetica Neue', Helvetica, Arial-Unicode, Arial, Sans-serif">Created by Kriya Barot</text><text x="0" y="120" fill="#000000" font-size="5px" font-weight="bold" font-family="'Helvetica Neue', Helvetica, Arial-Unicode, Arial, Sans-serif">from the Noun Project</text></svg>